<svg version="1.1" id="Layer_1" xmlns="http://www.w3.org/2000/svg" x="0" y="0" viewBox="0 0 300 120" xml:space="preserve"><g fill="#4F0A3C"><path d="M94.1 78.9c1.7 0 3.3.8 3.3 2.6v2.2c0 1 1.1 2.2 2.3 2.2 2.4 0 3-1 3.1-2.5l.1-1V75c-1.5.9-4.4 1.5-6.8 1.5-6.4 0-6.4-4.8-6.4-8.7V48.6c0-3.3.3-7.3 6.2-7.3 2.6 0 5.4.8 7.3 1.9.4-.7 1.2-1.2 2.2-1.2h4c1.3 0 2.5 1 2.5 2.5v41.8c0 2.6-4 3.6-9.1 3.6-6.4 0-12.4-.6-12.4-3.3v-5c.1-1.8 1.9-2.7 3.7-2.7zm4.4-9.9c0 2.8.9 3.2 2.1 3.2 1.2 0 2-.3 2.1-2.6V48.4c0-2.8-.9-3.1-2.1-3.1-1.2 0-2.1.4-2.1 3.1V69zM120 32.7c1.6 0 3.4.3 4.2 1 .6.6.9 1.5.9 2.4 0 .3 0 .4-.1.6-.2 1-.8 1.7-1.9 2.2-.4.2-1.8.3-3.2.3-1.7 0-3.4-.2-4-.6-.8-.6-1.2-1.5-1.2-2.6v-.2c.1-1.7.9-2.4 2.8-3 .6 0 1.4-.1 2.5-.1zm-1.9 43.1c-1.4 0-2.5-1.1-2.5-2.5V44.4c0-1.4 1.1-2.5 2.5-2.5h4c1.4 0 2.6 1.1 2.6 2.5v28.9c0 1.4-1.2 2.5-2.6 2.5h-4zM135.6 33.9c1.4 0 2.6 1.1 2.6 2.5v5.5h4.5v3.5h-4.5v22.5c0 1.7.4 3.8 2.6 4h1.3c1 0 1.9.8 1.9 2.1 0 1-.8 2-1.9 2h-4.8c-3.5 0-5.5-.1-6.8-1.6-1.5-1.6-1.5-3.5-1.5-7.2V45.4h-3v-3.5h3v-5.5c0-1.4 1.1-2.5 2.5-2.5h4.1zM158.3 65.6c-.1-2-.3-3-2.4-3.9-2.2-.9-8.7-1.2-10.3-4.6-.2-.4-.4-1.5-.4-2.8v-8.1c0-1.5.6-2.8 1.6-3.7 1.3-1.1 4.1-1.3 7.2-1.3 6.4 0 12.4.6 12.4 3.3V51c0 1.4-1.1 2.5-2.5 2.5H162c-1.4 0-2.6-1.1-2.6-2.5v-3.8c0-1-1.1-2.2-2.3-2.2-.4 0-1.4 0-1.7.1-1.2.5-1.7 1.8-1.7 3-.1.1-.1.8-.1 4 0 1.7.6 2.6 2.5 3.4 2.1.9 9 1.9 10.4 5.1.3.7.6 2.4.6 4.3v5.3c0 2.6-.8 4.2-1.9 4.7-1.5.9-4.7 1.2-7.8 1.2-6.4 0-12.4-.6-12.4-3.3v-6.7c0-1.4 1.1-2.5 2.5-2.5h1.9c1.4 0 2.6 1.1 2.6 2.5V70c0 1 1.1 2.2 2.3 2.2.4 0 1.7 0 2-.1 1-.4 1.4-1.4 1.5-2.4l.5-4.1zM187.2 53.7c-1.4 0-2.5-1.1-2.5-2.5v-2.1c-.1-1.7-.6-2.8-1.7-3.4-.3-.2-.8-.3-1.3-.3s-1 .1-1.4.4c-1.4 1-1.4 3.4-1.4 4.7v19.2c0 2.7.6 3 2.1 3 1.6 0 2-.7 2-2.9v-3.5c0-1.4 1.1-2.5 2.5-2.5h4c1.4 0 2.6 1.1 2.6 2.5V70c0 1.8-.2 3.6-1.2 4.6-1.5 1.5-2.5 2-8.7 2h-3.3c-1.8 0-3.8-.1-5.5-.7-1.5-.6-2-1.2-2.4-2.1-.6-1-.6-2.3-.6-4.3V49.2c0-3.4 0-4.6 1.7-6.5 1.2-1.2 4.4-1.5 7.8-1.5 2.9 0 7.9.2 10 .6 1.2.3 2.1 1.3 2.1 2.5v6.9c0 1.4-1.2 2.5-2.6 2.5h-2.2zM198.2 53.5c-1.4 0-2.5-1.1-2.5-2.5v-6.4c0-2.8 6-3.3 12.4-3.3 3.2 0 6.2.3 7.6 1.3 1 .8 1.6 2.1 1.6 3.7v27.1c0 1.4-1.2 2.5-2.6 2.5h-4c-1 0-1.8-.5-2.2-1.2-2 1-4.7 1.9-7.3 1.9-4.9 0-6.2-3.1-6.2-7.3v-5.6c0-2.6.1-5.7 2.2-7.1 2.2-1.4 8.5-1.1 9.9-2.4.8-.6 1.1-2.3 1.1-4 0-.8-.1-1.8-.2-2.6-.1-1-.5-2-1.5-2.4-.3-.1-1.2-.1-1.6-.1-1.2 0-2.3 1.2-2.3 2.2V51c0 1.4-1.2 2.5-2.6 2.5h-1.8zm5.9 6.2c-.5.8-.8 2.6-.8 5 0 1.3.1 2.8.3 4.6.1 1.7.6 2.4 1.3 2.8.3.1.6.3.8.3.4 0 .8-.1 1.2-.4 1.1-.6 1.1-2.6 1.1-4.5V58s-1.9.3-2.9.8c-.2.2-.6.6-1 .9zM239.5 42c1.6 0 2.4.7 2.8 1.6.4.8.6 1.8.6 3.3v21.8c0 2.4 0 5.6-2.2 7.1-1 .6-2.4.9-4 .9-2.4 0-5-.6-6.5-1.5v11.2c0 1.4-1.2 2.5-2.6 2.5h-4c-1.4 0-2.5-1.1-2.5-2.5V44.5c0-1.4 1.1-2.5 2.5-2.5h15.9zm-5.3 6.5c0-2.8-.9-3.2-2.1-3.2-1.2 0-2 .3-2.1 2.6v21.3c0 2.8.9 3.1 2.1 3.1 1.2 0 2.1-.4 2.1-3.1V48.5zM255.4 60.3v9.5c0 2.7.6 3 2.1 3 1.6 0 2-.7 2-2.9v-3.5c0-1.4 1.1-2.5 2.5-2.5h4c1.4 0 2.6 1.1 2.6 2.5V70c0 1.8-.2 3.6-1.2 4.6-1.5 1.5-2.5 2-8.7 2h-3.3c-1.8 0-3.8-.1-5.5-.7-1.5-.6-2-1.2-2.4-2.1-.6-1-.6-2.3-.6-4.3V49.2c0-3.4 0-4.6 1.7-6.5 1.2-1.2 4.4-1.5 7.8-1.5 2.9 0 7.9.2 10 .6 1.2.3 2.1 1.3 2.1 2.5v13.5c0 1.4-1.2 2.5-2.6 2.5h-10.5zm0-4.5h5.8V49c-.1-1.7-.6-2.8-1.7-3.4-.3-.2-.8-.3-1.3-.3s-1 .1-1.4.4c-1.4 1-1.4 3.4-1.4 4.7v5.4z"/></g><linearGradient id="SVGID_1_" gradientUnits="userSpaceOnUse" x1="49.217" y1="44.491" x2="77.571" y2="112.542" gradientTransform="matrix(1 0 0 -1 0 121.2)"><stop offset="0" stop-color="#ee2424"/><stop offset="1" stop-color="#ef529d"/></linearGradient><path fill="url(#SVGID_1_)" d="M73.1 41.4c-1.8 0-3.2 1.3-3.2 3v7.5s.1 1.5-1.4 1.5-1.5-1.5-1.5-1.5v-5.1c0-1.7-1.5-3-3.2-3-1.7 0-3.2 1.3-3.2 3v5.1s-.1 1.3-1.8 1.3-1.6-1.3-1.6-1.3V33.3c0-1.7-1.5-3.1-3.2-3.1-1.8 0-3.2 1.3-3.2 3v25.1s-.1 1.2-1.5 1.2-1.4-1.2-1.4-1.2V46.1c0-1.7-1.4-3-3.2-3s-3.2 1.3-3.2 3v12.2s.3 1.4-1.7 1.4c-1.8 0-1.7-1.4-1.7-1.4v-4.2c0-1.7-1.4-3-3.2-3s-3.2 1.3-3.2 3V67c-.1 1.7 1.3 3 3.1 3s3.2-1.3 3.2-3v-3.7s.1-1.3 1.7-1.3 1.7 1.3 1.7 1.3V75c0 1.7 1.4 3 3.2 3s3.2-1.3 3.2-3V63.3s0-1.4 1.4-1.4 1.5 1.4 1.5 1.4v19.1c0 1.7 1.5 3 3.2 3 1.8 0 3.2-1.3 3.2-3V56.9s0-1.4 1.7-1.4 1.7 1.4 1.7 1.4v8.3c0 1.7 1.5 3 3.2 3 1.7 0 3.2-1.3 3.2-3v-8.3s-.1-1.5 1.5-1.5 1.4 1.5 1.4 1.5v19.9c0 1.7 1.4 3 3.2 3 1.8 0 3.2-1.3 3.2-3V44.4c.1-1.7-1.3-3-3.1-3z"/><linearGradient id="SVGID_2_" gradientUnits="userSpaceOnUse" x1="70.536" y1="30.75" x2="101.719" y2="105.589" gradientTransform="matrix(1 0 0 -1 0 121.2)"><stop offset="0" stop-color="#ee2424"/><stop offset="1" stop-color="#ef529d"/></linearGradient><path fill="url(#SVGID_2_)" d="M83 54.7c-1.8 0-3.2 1.3-3.2 3v5.8c0 1.7 1.4 3 3.2 3s3.2-1.3 3.2-3v-5.8c0-1.6-1.4-3-3.2-3z"/></svg>