<svg version="1.1" id="Layer_1" xmlns="http://www.w3.org/2000/svg" x="0" y="0" viewBox="0 0 300 120" xml:space="preserve"><g id="khole"><path d="M240.5 92.5V82.3c0-1-.2-1.9-.5-2.8-.4-.8-.8-1.7-1.5-2.4-.2-.2-.4-.4-.6-.5.6-.7 1-1.5 1.4-2.3.7-1.5 1.1-3.1 1.1-4.8v-22c0-1.4-.3-2.9-.8-4.2-.5-1.3-1.3-2.5-2.3-3.6-1-1.1-2.1-1.9-3.4-2.6-1.3-.7-2.7-1.2-4.2-1.5-.9-.2-1.9-.2-2.9-.2l-11.5.1c-1.8 0-3.6.4-5.2 1-.3.1-.6.2-.9.4v-16c0-2-2.2-3.5-4.4-2.8l-2.7.8-11.5 3.5-3.7 1.1v13.3c-1-.5-2.1-.8-3.3-1-.9-.2-1.9-.2-2.9-.2l-11.5.1c-1.8 0-3.6.4-5.2 1s-3.1 1.5-4.3 2.6c-.1.1-2-1.2-3-1.7-1.3-.7-2.7-1.2-4.2-1.5-.9-.2-1.9-.2-2.9-.2H146.8V20.4c0-1.1-1.3-1.9-2.4-1.4l-5 1.9-11.5 4.4-2.1.8c-.7.3-1.2.9-1.2 1.6v8.2h-.5l-9.7.1c-.7 0-1.2-.5-1.2-1.1V30l-.1-9.5v-2.3c0-2.6-3.1-4.3-5.6-3l-2.2 1.1-28 14.4s-1.5.6-3 1.6l-1.8 1.1c-1.6.8-1.8 6.1-1.7 7.5 0 3-.6 5.9-.8 8.9-.1 1.1-2.6 3.4-2.6 3.4-1.2 1.1-3.1 1.4-4.4 2.4-1.9 1.4-3.4 4.1-3.2 6.4.1 1.6.6 3 1.2 4.3 1.4 2.8 4.9 3.9 6.5 6.3 1 1.4.4 3.2 1 4.7l1 2.5 1 1 1.1.2c2.8.5 6 .4 9.1.4 1 0 1.7.7 1.7 1.6l-.1 3.5v3.6c0 1.9 2.1 3.1 3.9 2.3l3.6-1.6 14.9-6.3c1.3-.5 2.7.3 2.7 1.6v2.8c0 1 1.1 1.6 2 1.1l5.7-2.6 7-3.2c1.3-.6 2.8.2 2.8 1.6v.3c0 1.3 1.5 2.3 2.9 1.8L132 86l7.2-2.7c.8-.3 1.7.2 1.7 1 0 1.9 2 3.1 3.9 2.4l3.4-1.2 4.7-1.7c1.5-.5 3.1.5 3.1 1.9 0 3-.1 6.8-.1 6.8 0 1 .2 1.9.5 2.8.1.4.3.7.5 1v5.5c0 1.9 1.7 3.5 3.8 3.5h1.5l7.5-.1c1.2 0 2.3-.2 3.4-.6 1.1-.4 2-1 2.9-1.7.8-.7 1.4-1.5 1.8-2.4h.5l8.6-.1H217.8c1.2 0 2.3-.2 3.4-.6.3-.1.6-.2.9-.4.8.4 1.6.6 2.4.8.6.1 1.2.2 1.9.2h5c1.2 0 2.3-.2 3.4-.6 1.1-.4 2-1 2.9-1.7.8-.7 1.5-1.6 1.9-2.6.5-1.3.8-2.2.9-3z"/><g fill="#D2D2D2"><path d="M129.9 29.8l11.5-4.4v17.4c1.9-1.2 4-1.9 6-1.9h2.2c4.5 0 8.2 3.1 8.2 7.3V77l-11.5 4V50.9c0-1.2-.4-2-2.4-1.9-1.9 0-2.4.7-2.4 1.7v26.5L130 81.4l-.1-51.6zM161.1 48c0-4.1 3.7-7.4 8.2-7.4l11.5-.1c4.5 0 8.2 3.1 8.2 7.3v22.1c0 4.1-3.7 7.4-8.2 7.4l-11.5.1c-4.5 0-8.2-3.1-8.2-7.3V48zM175 69.1c2 0 2.4-.8 2.4-2V50.6c0-1.2-.4-2-2.4-1.9-2 0-2.4.8-2.4 2v16.6c0 1.1.5 1.9 2.4 1.8zM192.3 27v50.1l11.5-.1V23.5L192.3 27zM207.2 47.6c0-4.1 3.7-7.4 8.2-7.4l11.5-.1c4.5 0 8.2 3.1 8.2 7.3v11.5L218.7 64v2.8c0 1.2.4 2 2.4 1.9 2 0 2.4-.8 2.4-2v-1.3l11.5-3.7v7.7c0 4.1-3.7 7.4-8.2 7.4l-11.5.1c-4.5 0-8.2-3.1-8.2-7.3v-22zm16.3 6.4v-3.8c0-1.2-.4-2-2.4-1.9-2 0-2.4.8-2.4 2v5.3l4.8-1.6z"/></g><linearGradient id="SVGID_1_" gradientUnits="userSpaceOnUse" x1="101.378" y1="15.38" x2="104.554" y2="15.38" gradientTransform="matrix(1 -.03281 .02785 -1.0009 21.779 78.853)"><stop offset="0" stop-color="#ec1c24"/><stop offset="1" stop-color="#bf151b"/></linearGradient><path fill="url(#SVGID_1_)" d="M123.6 60l3.1 3.2v-6.3z"/><g fill="#D2D2D2"><path d="M78.6 77.8h.9v-2.7h-.9zM81.6 77.8h.9v-2.7h-.9zM75.6 77.8h.9v-2.7h-.9zM72.6 77.9h.9V75.1h-.9zM84.6 77.8h.9V75h-.9zM79 65.8c-1 1-3.1 3.2-3.1 4.5 0 .6 1.1 1.6 1.7 1.9l.2.2s.4-1.1 1.2-1.9c.9.8 1.2 1.9 1.2 1.9l.2-.2c.5-.4 1.7-1.4 1.7-2 0-1.3-2.1-3.5-3.1-4.4zM93.1 57.9c-5 3.4-12 4.5-12 4.5 1.9 3.9 3.8 4.9 5.7 4.8.9 0 2-.4 3.5-1.3 4.3-2.3 2.8-8 2.8-8zM65.1 58.2s-1.4 5.7 2.8 8.1c1.4.8 2.6 1.2 3.5 1.2 1.9 0 3.8-1 5.7-4.9-.1 0-7-1.1-12-4.4z"/><path d="M124.1 50.2v-9.3l-11.5.1v6c0 1.2-.3 1.7-1.1 2.5l-3.7 3.7V30.1l-.1-9.5-28 13.7c5.5.1 11 2.2 15.2 6.4 7.2 7.2 5.3 14.2 1 22.2 0 0 3.2 2.1 1.7 4.4s-4.4 5.1-4.4 5.1-5.7-1.9-5.7 5.3v8.5l20.3-8.7h.1V65.1l3.7 3.7c.8.8 1.1 1.3 1.1 2.4v11.6l11.5-5.3v-9.7c0-1.6-.4-2.6-1.5-3.7l-5.1-5 5.1-5.2c1-1.1 1.4-2.1 1.4-3.7z"/></g><g fill="#58595B"><path d="M167.3 96.8c.9 0 1.1-.4 1.1-.9v-1.1c-.8.5-1.8.8-2.6.8h-1c-2 0-3.6-1.4-3.6-3.2v-9.7c0-1.8 1.6-3.2 4-3.2h.5c.9 0 1.8.3 2.6.8v-.8h5V97c0 1.8-1.6 3.2-3.6 3.2l-7.5.1v-3.6l5.1.1zm0-4.7c.8 0 1-.3 1.1-.7v-7.5c0-.5-.2-.7-1.1-.7-.9 0-1.1.4-1.1.9v7.2c.1.5.3.8 1.1.8zM174.9 89.4c0-1.4.6-2.1 1.8-2.5l5.4-1.8v-1.3c0-.5-.2-.8-1.1-.8-.9 0-1.1.4-1.1.9v.6l-5 1.6v-3.4c0-1.8 1.6-3.2 3.6-3.2h5c2 0 3.6 1.4 3.6 3.2v12.9l-8.6.1c-2 0-3.6-1.4-3.6-3.2v-3.1zm5.9 2.6h.2c.8 0 .9-.4.9-.9v-2.3l-1.7.6c-.2.1-.4.2-.4.5v1.3c.1.4.3.8 1 .8zM188.5 79.4h5v.8c.8-.5 1.8-.8 2.6-.8h1c1.2 0 2.2.5 2.9 1.3 1-.8 2.2-1.3 3.3-1.3h1c2 0 3.6 1.4 3.6 3.2v12.9h-5V83.7c0-.5-.2-.8-1.1-.8-.9 0-1.1.4-1.1.9v11.6h-5V83.8c0-.5-.2-.8-1.1-.8-.8 0-1.1.3-1.1.7v11.8h-5V79.4zM209.3 82.4c0-1.8 1.6-3.2 3.6-3.2h5c2 0 3.6 1.4 3.6 3.2v5l-7.2 2.3v1.2c0 .5.2.8 1.1.8.9 0 1.1-.4 1.1-.9v-.6l5-1.6V92c0 1.8-1.6 3.2-3.6 3.2h-5c-2 0-3.6-1.4-3.6-3.2v-9.6zm7.1 2.8v-1.7c0-.5-.2-.8-1.1-.8s-1.1.4-1.1.9v2.3l2.2-.7zM222.9 88.5l5 1.6v.6c0 .5.2.8 1.1.8s1.1-.4 1.1-.9v-.9c0-.3-.1-.4-.4-.5l-5-1.6c-1.2-.4-1.8-1-1.8-2.4v-3c0-1.8 1.6-3.2 3.6-3.2h5c2 0 3.6 1.4 3.6 3.2v3.4l-5-1.6v-.6c0-.5-.2-.8-1.1-.8s-1.1.4-1.1.9v.9c0 .3.1.4.4.5l5 1.6c1.2.4 1.8 1 1.8 2.4v3c0 1.8-1.6 3.2-3.6 3.2h-5c-2 0-3.6-1.4-3.6-3.2v-3.4z"/></g></g></svg>