<svg version="1.1" id="Layer_1" xmlns="http://www.w3.org/2000/svg" x="0" y="0" viewBox="0 0 300 120" xml:space="preserve"><path fill="#812A64" d="M163.3 43.7c-4.3-6.7-9.7-13.9-18.1-16.5l-7.4-2.3 1.8 7.6c.3 1.4.7 2.9 1.1 4.3-2.5-.6-5-.9-7.6-1.1-11.1-.6-17.2 1.3-17.2 1.3s9.3 2.6 12.4 5.2c1.6 1.4 2.4 2.8 2.5 3.6-7.4 4.5-12.3 12.3-12.9 21.1-.9 14.6 10.2 27.2 24.8 28.1 14.6.9 27.1-10.2 28.1-24.7.6-9.2-3.5-20.2-7.5-26.6z"/><g fill="#812A64"><path d="M76.5 91.9V51H71v-9.5h21.6V51H87v40.9H76.5zM109.8 91.9V71.5h-3.4v20.3H96.1V41.5h10.4v20.6h3.4V41.5h10.4v50.3l-10.5.1zM170 91.9V41.5h10.5v40.8h7.2v9.6H170zM191.4 91.9V41.5h10.4v50.3l-10.4.1zM211.8 91.9c-4.4 0-6.9-2.2-6.9-5.5V47.8c0-3.4 3.1-6.3 6.9-6.3h10.4c3.8 0 6.8 2.8 6.8 6.3v38.5c0 3.4-3.4 5.5-6.8 5.5l-10.4.1zm6.7-39.5c0-.7-.6-1.3-1.3-1.3h-.5c-.8 0-1.3.6-1.3 1.3v28.9c0 .6.6 1.1 1.3 1.1h.8c.7 0 1.2-.5 1.2-1.1l-.2-28.9z"/></g><g id="XMLID_942_"><g id="XMLID_948_"><linearGradient id="SVGID_1_" gradientUnits="userSpaceOnUse" x1="131.877" y1="129.584" x2="223.803" y2="45.411" gradientTransform="matrix(.998 .06345 .06345 -.998 -27.889 151.54)"><stop offset="0" stop-color="#a6ce3a"/><stop offset=".501" stop-color="#4bb749"/><stop offset="1" stop-color="#00a99a"/></linearGradient><path fill="url(#SVGID_1_)" d="M159.6 46.1c-3.9-6.1-8.7-12.5-15.6-14.7.9 4 2.1 8.1 3.3 12-5.4-2.2-11.1-3.4-16.9-3.4 2.3.8 4 2.8 5.1 5 .5.9.8 1.9 1.1 2.9-7.9 3-13.7 10.3-14.2 19.2-.8 12.2 8.5 22.6 20.6 23.4 12.2.8 22.6-8.5 23.4-20.6.4-7.4-2.8-17.5-6.8-23.8zm-14.8 15.2c-.2.3-.4.6-.7.8-.3.3-.6.5-.9.7-.3.2-.7.3-1 .3-.5 0-.9-.2-1.3-.4-.3-.3-.7-.6-.8-1-.2-.4-.3-.8-.3-1.3 0-.4.2-.8.3-1.2.3-.4.8-.7 1.3-.8.6-.1 1.2-.1 1.7 0 .6.2 1.1.3 1.4.8.4.3.6.8.6 1.3 0 .2-.1.4-.3.8zm-9.5 5.1c-.1.3-.3.4-.5.6-.2.2-.4.3-.7.4-.3.1-.5.2-.8.2-.3 0-.7-.2-.9-.3-.3-.2-.4-.4-.6-.7-.2-.3-.2-.6-.2-.8 0-.3.1-.6.3-.8.2-.3.5-.5.9-.6.4-.1.8-.1 1.2 0 .4.1.8.3 1 .5.3.3.4.5.4.9 0 .2-.1.4-.1.6z"/></g></g></svg>