<svg version="1.1" id="Layer_1" xmlns="http://www.w3.org/2000/svg" x="0" y="0" viewBox="0 0 300 120" xml:space="preserve"><g id="nano-shark"><path fill="#959595" d="M32.5 84.7V59.1c0-1.3 1-2.3 2.3-2.3h.4l.3.1c.3.1.5.2.7.4l.3.2c.2.2.3.4.4.6l14 19.6V59c0-1.3 1.1-2.3 2.4-2.3.7 0 1.2.2 1.7.7.5.5.7 1 .7 1.7v25.6c0 1-.7 1.9-1.7 2.2-.1 0-.2.1-.4.1h-.3c-.6 0-1-.2-1.5-.5-.2-.2-.4-.3-.4-.4l-14.3-20v18.5c0 1.3-1 2.3-2.4 2.3-1.2.1-2.2-.9-2.2-2.2zM62.2 84c-2.1-2.1-3.3-4.9-3.3-8s1.2-5.9 3.3-8c2.1-2.1 4.9-3.3 8-3.3 3.1 0 5.8 1.2 7.9 3.3 2.1 2.1 3.3 4.9 3.3 7.9v8.7c0 .6-.2 1.2-.7 1.7-.3.4-1 .7-1.7.7-1.2 0-2.2-.9-2.3-2.2-2 1.6-4.2 2.4-6.6 2.4-2.9.1-5.8-1.2-7.9-3.2zm12.7-3.4c1.2-1.2 1.9-2.8 1.9-4.6 0-1.8-.7-3.4-1.9-4.6-1.2-1.2-2.9-1.9-4.7-1.9-1.8 0-3.4.7-4.6 1.9-1.2 1.2-1.9 2.9-1.9 4.6s.7 3.4 1.9 4.6c1.2 1.2 2.8 1.9 4.6 1.9s3.4-.7 4.7-1.9zM101.4 84.7v-9.1c0-1.9-.5-3.4-1.3-4.5-.9-1.1-2.2-1.7-3.7-1.7-1.6 0-3 .6-3.9 1.8s-1.6 2.7-1.6 4.4v9.1c0 1.3-1 2.3-2.3 2.3-.6 0-1.2-.2-1.7-.7-.5-.5-.7-1-.7-1.7V67c0-.7.2-1.2.7-1.7.5-.5 1-.7 1.7-.7s1.2.2 1.7.7c.5.5.7 1 .7 1.7v.3c1.8-1.7 3.9-2.7 6-2.7 2.7 0 5 1.1 6.7 3.1 1.6 2 2.5 4.7 2.5 7.8v9.1c0 1.3-1 2.3-2.3 2.3s-2.5-.9-2.5-2.2zM112.6 84c-2.1-2.1-3.3-4.9-3.3-8s1.2-5.9 3.3-8c2.1-2.1 4.9-3.3 8-3.3s5.9 1.2 8 3.3c2.1 2.1 3.3 4.9 3.3 8s-1.2 5.9-3.3 8c-2.1 2.1-4.9 3.3-8 3.3s-5.9-1.3-8-3.3zm12.6-3.4c1.2-1.2 1.9-2.8 1.9-4.6 0-1.8-.7-3.4-1.9-4.6-1.2-1.2-2.9-1.9-4.7-1.9-1.8 0-3.4.7-4.6 1.9-1.2 1.2-1.9 2.9-1.9 4.6s.7 3.4 1.9 4.6c1.2 1.2 2.8 1.9 4.6 1.9 1.9 0 3.5-.7 4.7-1.9z"/><path fill="#215E90" d="M161.8 85.6c-1.8-1-3.2-2.5-3.9-4.1-.2-.4-.3-.8-.3-1.2 0-.2 0-.5.1-.8.2-.5.6-.9 1.1-1.2.4-.2.7-.3 1-.3.7 0 1.4.5 2.2 1.4 1.3 2.1 3.5 3.3 6.3 3.3 1.4 0 2.8-.4 3.9-1.1 1.1-.8 1.8-1.9 1.8-3.2 0-1.3-.6-2.3-1.8-3-.8-.5-1.8-.8-3.2-1.1l-.6-.2c-3.1-.6-5.5-1.6-7.2-2.9-2-1.5-2.9-3.5-2.9-5.9 0-2.5 1.2-4.7 3.1-6.3 1.9-1.5 4.3-2.4 6.9-2.4 1.9 0 3.7.4 5.3 1.1 1.7.8 2.9 1.9 3.8 3.3.2.3.3.6.3.9v.5c-.1.4-.3.8-.6 1.1-.4.4-.9.6-1.5.6s-1-.1-1.4-.4c-1-.8-1.8-1.4-2.5-1.8-.9-.4-1.9-.6-3.1-.6-1.4 0-2.7.4-3.7 1.1-1 .7-1.6 1.7-1.6 2.9 0 1.3.7 2.2 2.1 2.9 1.1.6 2.4.9 4.8 1.4 2.5.7 4.6 1.5 6.1 2.7 1.8 1.5 2.7 3.4 2.7 5.8 0 2.6-1.1 4.9-3.1 6.7-2 1.7-4.6 2.7-7.5 2.7-2.5-.2-4.7-.8-6.6-1.9zM197.7 84.7v-9c0-1.9-.5-3.4-1.3-4.6-.9-1.2-2.2-1.7-3.7-1.7s-2.9.6-3.9 1.7c-1 1-1.6 2.5-1.6 4.2v9.4c0 1.3-1 2.3-2.3 2.3-.7 0-1.2-.2-1.7-.7-.5-.5-.7-1-.7-1.7V59.1c0-.7.3-1.2.7-1.7.5-.5 1-.7 1.7-.7s1.2.2 1.7.7c.5.5.7 1 .7 1.7v8.3c1.8-1.7 3.9-2.7 6-2.7 2.7 0 5 1.1 6.7 3.1 1.6 2 2.5 4.7 2.5 7.8v9.1c0 1.3-1 2.3-2.3 2.3-1.5 0-2.5-1-2.5-2.3zM208.9 84c-2.1-2.1-3.3-4.9-3.3-8s1.2-5.9 3.3-8c2.1-2.1 4.9-3.3 8-3.3s5.8 1.2 7.9 3.3 3.3 4.9 3.3 7.9v8.7c0 .6-.2 1.2-.7 1.7-.4.5-1.1.7-1.7.7-1.2 0-2.2-.9-2.3-2.2-2 1.6-4.2 2.4-6.6 2.4-3 .1-5.9-1.2-7.9-3.2zm12.6-3.4c1.2-1.2 1.9-2.8 1.9-4.6 0-1.8-.7-3.4-1.9-4.6-1.2-1.2-2.9-1.9-4.7-1.9-1.8 0-3.4.7-4.6 1.9-1.2 1.2-1.9 2.9-1.9 4.6s.7 3.4 1.9 4.6c1.2 1.2 2.8 1.9 4.6 1.9 1.9 0 3.5-.7 4.7-1.9zM233.5 86.3c-.5-.5-.7-1-.7-1.7V67c0-.6.2-1.2.7-1.7.5-.5 1-.7 1.7-.7s1.2.2 1.7.7c.5.5.7 1 .7 1.7 2.2-1.6 4.5-2.3 7-2.3h.1c1.5 0 2.4.9 2.4 2.3 0 1.3-1.1 2.3-2.4 2.3h-.1c-1.9 0-3.7.8-5 2.1-1.3 1.3-2.1 3.1-2.1 5.1v8.1c0 1.3-1 2.3-2.3 2.3-.7.1-1.2-.1-1.7-.6zM250 84.7V59c0-.7.2-1.2.7-1.7.5-.5 1-.7 1.7-.7 1.3 0 2.3 1 2.3 2.3V74l8.6-8.4c.5-.4 1-.6 1.5-.6.6 0 1.2.2 1.7.7.5.5.7 1 .7 1.6 0 .6-.2 1.2-.7 1.6l-5.4 5.1 6 9.2c.3.4.4.8.4 1.3 0 .8-.4 1.5-1.1 2-.4.3-.8.4-1.3.4-.8 0-1.5-.4-1.9-1.1l-5.6-8.5-3 2.8v4.5c0 .6-.2 1.2-.7 1.6-.5.5-1 .7-1.6.7-1.3.1-2.3-.9-2.3-2.2z"/><g><path fill="#215E90" d="M147.4 62.4c5 0 7.5 1.7 7.7 1.8-4.5-11.4-6-32.3 8.6-32.3-8.8-6-16.1 2.2-28.8-3 7.3 4.3 10.4 9.5 10.4 9.5-17.5-14.4-39-18.1-53.3-19.3 3 10.6 6.4 18.9 10.4 25.5 3.3 5.4 7.2 9.6 11.8 13.1.1.1.3.1.4.2-7 5.2-6.7 10.6-6.7 13.6 1.9-5.1 6.9-8.7 12.7-8.7 6.6 0 12.1 4.7 13.3 10.9 0 .1.1.2.1.3 0 0 2.8-10.1-10.3-15.9-3.1-1.4-6.7-3.6-9.7-6.1-1.3-1.3-2.5-2.5-5.6-6.2-1.3-1.6-2.8-3.5-4.2-5.6-2.4-3.7-4.5-7.9-5.5-12.5 12.2-.1 39.8 11.3 44.1 39.2 1.1 7.2-.5 18.9-8.8 21-2.8 1.1-5-3-11.9 2.6 10.3-1.6 10.6 3.7 5.2 10.5 7.9-3.5 5.7-9 8.7-10.6 6.5-2.7 13.1-7.7 15.8-18 4.3-1.2 7.5.7 9.1 2.6 1.1 1.3.9.7.8.5-4.4-8.5-6.3-11-14.3-13.1zM122.6 30l-3.9-2.5 5.4 1.1-1.5 1.4z"/></g></g></svg>