<svg version="1.1" id="Layer_1" xmlns="http://www.w3.org/2000/svg" x="0" y="0" viewBox="0 0 300 120" xml:space="preserve"><path d="M71.5 68.3c0-3-1.1-5.6-3.2-7.6-.7-.7-1.3-1.2-2-1.6v.1c0 11.4-9.2 20.5-20.5 20.5-.6 0-1.2 0-1.7-.1V91h16.6c3 0 5.6-1.1 7.6-3.2 2.1-2.1 3.2-4.6 3.2-7.6 0-2.2-.6-4.2-1.7-5.9 1.1-1.8 1.7-3.8 1.7-6zM61.3 80.8c-.2.2-.4.2-.7.2h-6.9v-2h6.9c.2 0 .5.1.7.2.2.2.2.4.2.7.1.3 0 .7-.2.9zM73.4 57.5v33.4h9.8V57.5h-9.8zM85.2 57.5v9.8H93v23.6h9.8V67.3h7.9v-9.8H85.2z"/><path fill="#D76127" d="M122.5 81.4v9.5h-9.8V57.5h16.7c3 0 5.6 1.1 7.6 3.2 2.1 2.1 3.2 4.6 3.2 7.6s-1.1 5.6-3.2 7.6c-1.3 1.3-2.8 2.2-4.5 2.7l8.6 12.2h-12l-6.6-9.4zm0-14.1v2h6.9c.2 0 .5-.1.7-.2.2-.2.2-.4.2-.7s-.1-.5-.2-.7c-.2-.2-.4-.2-.7-.2h-6.9v-.2zM166.8 57.5v9.8H158c-1.9 0-3.5.7-4.9 2-1.3 1.3-2 3-2 4.9s.7 3.5 2 4.9c1.3 1.3 3 2 4.9 2h8.8v9.8H158c-4.6 0-8.6-1.7-11.8-4.9-3.2-3.2-4.9-7.2-4.9-11.8s1.7-8.6 4.9-11.8c3.2-3.2 7.2-4.9 11.8-4.9h8.8zM158 79.1c-1.3 0-2.5-.5-3.5-1.4-1-1-1.4-2.1-1.4-3.5 0-1.3.5-2.5 1.4-3.5 1-1 2.1-1.4 3.5-1.4h8.8v9.8H158zM179.5 70.3v20.6h-9.8V70.3c0-3.5 1.2-6.6 3.7-9s5.5-3.7 9-3.7 6.6 1.2 9 3.7 3.7 5.5 3.7 9v20.6h-9.8V70.3c0-.8-.2-1.5-.8-2.1-.6-.6-1.2-.8-2.1-.8s-1.5.2-2.1.8c-.6.5-.8 1.3-.8 2.1zM207.9 57.5c4.6 0 8.6 1.7 11.8 4.9s4.9 7.2 4.9 11.8c0 4.6-1.7 8.6-4.9 11.8-3.2 3.2-7.2 4.9-11.8 4.9h-10.8V57.5h10.8zm-.9 23.6h1c1.9 0 3.5-.7 4.9-2 1.4-1.3 2-3 2-4.9s-.7-3.5-2-4.9c-1.3-1.4-3-2-4.9-2h-1v13.8zM251.3 57.5v9.8h-8.8c-1.9 0-3.5.7-4.9 2s-2 3-2 4.9.7 3.5 2 4.9c1.3 1.4 3 2 4.9 2h8.8v9.8h-8.8c-4.6 0-8.6-1.7-11.8-4.9-3.2-3.2-4.9-7.2-4.9-11.8s1.7-8.6 4.9-11.8c3.2-3.2 7.2-4.9 11.8-4.9h8.8zm-8.8 21.6c-1.3 0-2.5-.5-3.5-1.4-1-1-1.4-2.1-1.4-3.5 0-1.3.5-2.5 1.4-3.5 1-1 2.1-1.4 3.5-1.4h8.8v9.8h-8.8zM263.9 81.4v9.5h-9.8V57.5h16.6c3 0 5.6 1.1 7.6 3.2 2.1 2.1 3.2 4.6 3.2 7.6s-1.1 5.6-3.2 7.6c-1.3 1.3-2.8 2.2-4.5 2.7l8.6 12.2h-12l-6.5-9.4zm0-14.1v2h6.9c.2 0 .5-.1.7-.2.2-.2.2-.4.2-.7s-.1-.5-.2-.7c-.2-.2-.4-.2-.7-.2h-6.9v-.2zM66.2 59c-1.7-1-3.5-1.6-5.6-1.6H43.9v22c-10.5-.7-18.8-9.6-18.8-20.3 0-11.4 9.2-20.6 20.5-20.6 11.4.1 20.6 9.2 20.6 20.5z"/><circle cx="59.8" cy="33.2" r="4.2"/><circle cx="19.5" cy="49.9" r="2"/></svg>