<svg version="1.1" id="Layer_1" xmlns="http://www.w3.org/2000/svg" x="0" y="0" viewBox="0 0 300 120" xml:space="preserve"><path fill="#772A85" d="M15.5 34.1h150.6v51.8H15.5z"/><path fill="#7C2A84" d="M20.9 34.1h149.6v51.8H20.9z"/><path fill="#802984" d="M26.3 34.1h148.6v51.8H26.3z"/><path fill="#842983" d="M31.7 34.1h147.5v51.8H31.7z"/><path fill="#882982" d="M37.1 34.1h146.5v51.8H37.1z"/><path fill="#8C2981" d="M42.5 34.1H188v51.8H42.5z"/><path fill="#902980" d="M47.9 34.1h144.5v51.8H47.9z"/><path fill="#95297F" d="M53.3 34.1h143.5v51.8H53.3z"/><path fill="#99287F" d="M58.8 34.1h142.4v51.8H58.8z"/><path fill="#9D287E" d="M64.1 34.1h141.4v51.8H64.1z"/><path fill="#A1287D" d="M69.6 34.1H210v51.8H69.6z"/><path fill="#A5287C" d="M75 34.1h139.4v51.8H75z"/><path fill="#AA287B" d="M80.3 34.1h138.3v51.8H80.3z"/><path fill="#AE277A" d="M85.8 34.1h137.3v51.8H85.8z"/><path fill="#B2277A" d="M91.2 34.1h136.3v51.8H91.2z"/><path fill="#B72779" d="M96.5 34.1h135.3v51.8H96.5z"/><path fill="#BB2778" d="M102 34.1h134.3v51.8H102z"/><path fill="#C02777" d="M107.4 34.1h133.2v51.8H107.4z"/><path fill="#C42676" d="M112.8 34.1H245v51.8H112.8z"/><path fill="#C82675" d="M118.2 34.1h131.2v51.8H118.2z"/><path fill="#CD2674" d="M123.6 34.1h130.2v51.8H123.6z"/><path fill="#D12674" d="M129 34.1h129.2v51.8H129z"/><path fill="#D52673" d="M134.4 34.1h128.2v51.8H134.4z"/><path fill="#DA2672" d="M139.8 34.1h127.1v51.8H139.8z"/><path fill="#DE2671" d="M145.2 34.1h126.1v51.8H145.2z"/><path fill="#E32770" d="M150.6 34.1h125.1v51.8H150.6z"/><path fill="#E7276F" d="M156 34.1h124.1v51.8H156z"/><path fill="#EE266E" d="M161.4 34.1h123.1v51.8H161.4z"/><g><g fill="#FFF" stroke="#FFF" stroke-width=".216" stroke-miterlimit="10"><path d="M51.3 44.9c.3 0 .4.1.6.3.2.2.3.3.3.6v29.5c0 .3-.1.4-.3.6-.2.1-.4.1-.6.1h-6.6c-.3 0-.4-.1-.6-.3-.2-.2-.3-.3-.3-.6V64.5H32.5v10.6c0 .3-.1.4-.3.6-.2.2-.3.3-.6.3H25c-.3 0-.4-.1-.6-.3-.2-.2-.3-.3-.3-.6V63.8c0-.3.1-.4.3-.6s.3-.3.6-.3h19.5c.3 0 .4.1.6.3.2.2.3.3.3.6v10.6h5V46.5h-5v10.6c0 .3-.1.4-.3.6-.2.2-.3.3-.6.3H25c-.3 0-.4-.1-.6-.3s-.3-.3-.3-.6V45.7c0-.3.1-.4.3-.6s.3-.3.6-.3h6.6c.3 0 .4.1.6.3.2.2.3.3.3.6v10.6h11.4V45.7c0-.3.1-.4.3-.6s.3-.3.6-.3h6.5zm-20.4 1.6h-5v9.9h5v-9.9zm0 18h-5v9.9h5v-9.9zM87 44.9c.3 0 .4.1.6.3s.3.3.3.6v14.7c0 4.3-1.5 8-4.6 11-3 3.1-6.8 4.6-11 4.6-4.3 0-8-1.5-11-4.6-3-3.1-4.6-6.8-4.6-11V45.7c0-.3.1-.4.3-.6.2-.2.3-.3.6-.3s.4.1.6.3c.2.2.3.3.3.6v14.7c0 3.8 1.3 7.2 4.1 9.9 2.8 2.8 6 4.1 9.9 4.1 3.8 0 7.2-1.3 9.9-4.1s4.1-6 4.1-9.9v-14h-4.9v13.8c0 2.5-.9 4.7-2.7 6.4s-3.9 2.7-6.4 2.7-4.7-.9-6.4-2.7c-1.9-1.8-2.8-3.9-2.8-6.4V45.7c0-.3.1-.4.3-.6s.3-.3.6-.3.4.1.6.3.3.3.3.6v14.6c0 2.1.8 3.8 2.2 5.3 1.4 1.4 3.3 2.2 5.3 2.2 2.1 0 3.8-.8 5.3-2.2 1.5-1.4 2.2-3.2 2.2-5.3V45.7c0-.3.1-.4.3-.6s.3-.3.6-.3h6zM131.5 45.1c.2-.2.3-.3.6-.3s.4.1.6.3c.2.2.3.3.3.6v29.5c0 .3-.1.4-.3.6-.2.2-.3.3-.6.3h-6.7c-.3 0-.4-.1-.6-.3-.2-.2-.3-.3-.3-.6V60.4l-11.4 15.3c-.2.3-.3.3-.7.3h-.4c-.3 0-.6-.2-.8-.5l-10.9-15v14.7c0 .3-.1.4-.3.6.1.2 0 .2-.3.2H93c-.3 0-.4-.1-.6-.3-.2-.2-.3-.3-.3-.6V45.7c0-.3.1-.4.3-.6.2-.2.3-.3.6-.3s.4.1.6.3c.2.2.3.3.3.6v28.7H99V45.7v-.2-.1s0-.1.1-.1l.1-.1.1-.1h.1c.1 0 .1-.1.1-.1H100.3s.1 0 .1.1h.1l.1.1s.1 0 0 0l.1.1 12.1 17 12.1-17 .1-.1.1-.1h.1s.1 0 .1-.1h.7s.1 0 0 0c0 0 .1 0 .1.1h.1l.1.1s.1.1 0 0l.1.1s0 .1.1.1c0 0 0 .1.1.1v28.9h5.1V45.7c-.5-.2-.4-.4-.2-.6zm-7.1 12.6v-9.5l-11.3 15.9-.1.1h-.1c-.1.1-.1.1 0 0 0 0-.1 0-.1.1-.1 0-.1.1-.2.1h-.4c-.1 0-.1 0-.2-.1 0 0-.1 0-.1-.1h-.1l-.1-.1c0-.1-.1-.1 0 0l-11.3-15.9v9.5c0 .1.1.1 0 0l11.8 16.4 12.2-16.4zM151.1 44.9c4.3 0 7.9 1.5 11 4.6 3 3.1 4.6 6.7 4.6 11s-1.5 7.9-4.6 11c-3 3-6.7 4.6-11 4.6h-12.8c-.3 0-.4-.1-.6-.3-.2-.2-.3-.3-.3-.6s.1-.4.3-.6c.2-.2.3-.3.6-.3h12.8c3.8 0 7.1-1.3 9.9-4.1 2.8-2.8 4.1-6 4.1-9.9s-1.3-7.1-4.1-9.9c-2.8-2.8-6-4.1-9.9-4.1h-12v21.3h5V52.3c0-.3.1-.4.3-.6.2-.2.3-.3.6-.3h6.2c2.4 0 4.6.8 6.3 2.6 1.8 1.8 2.6 3.8 2.6 6.3 0 2.4-.8 4.6-2.6 6.3-1.8 1.8-3.8 2.6-6.3 2.6h-12.8c-.3 0-.4-.1-.6-.3-.2-.2-.3-.3-.3-.6V45.6c0-.3.1-.4.3-.6.2-.2.3-.3.6-.3l12.7.2zm-5.4 22.9h5.3c2 0 3.8-.8 5.2-2.2 1.4-1.4 2.2-3.2 2.2-5.2s-.8-3.8-2.2-5.2c-1.4-1.4-3.2-2.2-5.2-2.2h-5.3v14.8zM196.4 74.6c.2.3.3.6.1.8-.2.3-.4.4-.8.4h-8.4c-.3 0-.5-.1-.7-.3l-7.3-9.6v9.3c0 .3-.1.4-.3.6-.2.2-.3.3-.6.3H172c-.3 0-.4-.1-.6-.3-.2-.2-.3-.3-.3-.6V63.8c0-.3.1-.4.3-.6s.3-.3.6-.3h14.8c2.3 0 4.2-.8 5.8-2.4 1.6-1.6 2.4-3.5 2.4-5.8s-.8-4.2-2.4-5.8c-1.6-1.6-3.5-2.4-5.8-2.4h-13.9v9.9h5v-4.1c0-.3.1-.4.3-.6.2-.2.3-.3.6-.3h8.1c.9 0 1.7.3 2.3.9.7.7.9 1.4.9 2.3s-.3 1.6-.9 2.3c-.6.6-1.3.9-2.2 1H172.1c-.3 0-.4-.1-.6-.3-.2-.2-.3-.3-.3-.6V45.7c0-.3.1-.4.3-.6.2-.2.3-.3.6-.3h14.7c2.7 0 5 .9 6.9 2.8 1.9 1.9 2.8 4.3 2.8 6.9 0 2.4-.8 4.5-2.3 6.3-1.5 1.8-3.4 2.9-5.8 3.3l8 10.5zm-23.6-.2h5v-9.9h-5v9.9zm6.6-18.1H186.8c.4 0 .8-.2 1.2-.5.3-.3.5-.7.5-1.2s-.2-.8-.5-1.2c-.3-.3-.7-.5-1.2-.5h-7.3l-.1 3.4zm14.7 18l-7.4-9.6s-.1-.1-.1-.2h-6.3l7.4 9.7 6.4.1zM231.6 44.9c.3 0 .4.1.6.3.2.2.3.3.3.6v14.7c0 4.3-1.5 8-4.6 11-3 3.1-6.8 4.6-11 4.6-4.3 0-8-1.5-11-4.6s-4.6-6.8-4.6-11V45.7c0-.3.1-.4.3-.6.2-.2.3-.3.6-.3s.4.1.6.3.3.3.3.6v14.7c0 3.8 1.3 7.2 4.1 9.9 2.8 2.8 6 4.1 9.9 4.1 3.8 0 7.2-1.3 9.9-4.1s4.1-6 4.1-9.9v-14H226v13.8c0 2.5-.9 4.7-2.7 6.4-1.8 1.8-3.9 2.7-6.4 2.7s-4.7-.9-6.4-2.7c-1.8-1.8-2.7-3.9-2.7-6.4V45.7c0-.3.1-.4.3-.6.2-.2.3-.3.6-.3s.4.1.6.3.3.3.3.6v14.6c0 2.1.8 3.8 2.2 5.3 1.4 1.4 3.3 2.2 5.3 2.2 2.1 0 3.8-.8 5.3-2.2 1.5-1.4 2.2-3.2 2.2-5.3V45.7c0-.3.1-.4.3-.6.2-.2.3-.3.6-.3h6.1zM276.1 45.1c.2-.2.3-.3.6-.3s.4.1.6.3c.2.2.3.3.3.6v29.5c0 .3-.1.4-.3.6-.2.2-.3.3-.6.3H270c-.3 0-.4-.1-.6-.3-.2-.2-.3-.3-.3-.6V60.4l-11.4 15.3c-.2.3-.3.3-.7.3h-.4c-.3 0-.6-.2-.8-.5l-10.9-15v14.7c0 .3-.1.4-.3.6-.2.2-.3.3-.6.3h-6.7c-.3 0-.4-.1-.6-.3-.2-.2-.3-.3-.3-.6V45.7c0-.3.1-.4.3-.6.2-.2.3-.3.6-.3s.4.1.6.3c.2.2.3.3.3.6v28.7h5.1V45.7v-.2-.1s0-.1.1-.1l.1-.1.1-.1h.1c.1 0 .1-.1.1-.1H244.6s.1 0 .1.1h.1l.1.1s.1 0 0 0l.1.1 12.1 17 12.1-17 .1-.1.1-.1h.1s.1 0 .1-.1h.7s.1 0 0 0c0 0 .1 0 .1.1h.1l.1.1s.1.1 0 0l.1.1s0 .1.1.1c0 0 0 .1.1.1v28.9h5.1V45.7c-.2-.2-.1-.4.1-.6zM269 57.7v-9.5l-11.3 15.9-.1.1h-.1c-.1.1-.1.1 0 0 0 0-.1 0-.1.1-.1 0-.1.1-.2.1h-.4c-.1 0-.1 0-.2-.1 0 0-.1 0-.1-.1h-.1l-.1-.1c0-.1-.1-.1 0 0L245 48.2v9.5c0 .1.1.1 0 0l11.6 16.4L269 57.7z"/></g></g></svg>