<svg version="1.1" id="Layer_1" xmlns="http://www.w3.org/2000/svg" x="0" y="0" viewBox="0 0 298.9 120" xml:space="preserve"><g fill="#F7941E" stroke="#F7941E" stroke-miterlimit="10"><path d="M115.9 84.1h-8.3v-47h-7.5v-7.6h23.3v7.6h-7.5v47zM134.9 52.5h8v-23h8.3V84h-8.3V60h-8v24h-8.3V29.6h8.3v22.9zM156.3 29.6h18.5v7.6h-10.2v15.4h9.8v7.6h-9.8v16.4H175v7.6h-18.7V29.6zM179.4 29.6h18.5v7.6h-10.2v15.4h9.8v7.6h-9.8v16.4H198v7.6h-18.7V29.6zM221.5 56c3.2 1.1 4.8 3.7 4.8 7.8v10c0 6.7-3.4 10.1-10.1 10.1h-13.6V29.6H216c6.7 0 10.1 3.4 10.1 10.1v8c0 4.4-1.5 7.2-4.6 8.3zm-3.6-16c0-2.1-1-3.1-3.1-3.1h-4v15.9h3.6c2.3 0 3.4-1.2 3.4-3.4l.1-9.4zm-7.1 19.8v16.9h4.1c2.1 0 3.1-1 3.1-3.1V63.2c0-2.3-1.2-3.4-3.4-3.4h-3.8zM230.9 29.6h8.3v46.9h9.2v7.6h-17.5V29.6zM259 52.5l4.9-23h8L263 65v19.1h-8.3V65.3l-8.9-35.8h8.6l4.6 23z"/></g><g fill="#58595B"><path d="M115.9 84.1h-8.3v-47h-7.5v-7.6h23.3v7.6h-7.5v47zM134.9 52.5h8v-23h8.3V84h-8.3V60h-8v24h-8.3V29.6h8.3v22.9zM156.3 29.6h18.5v7.6h-10.2v15.4h9.8v7.6h-9.8v16.4H175v7.6h-18.7V29.6zM179.4 29.6h18.5v7.6h-10.2v15.4h9.8v7.6h-9.8v16.4H198v7.6h-18.7V29.6zM221.5 56c3.2 1.1 4.8 3.7 4.8 7.8v10c0 6.7-3.4 10.1-10.1 10.1h-13.6V29.6H216c6.7 0 10.1 3.4 10.1 10.1v8c0 4.4-1.5 7.2-4.6 8.3zm-3.6-16c0-2.1-1-3.1-3.1-3.1h-4v15.9h3.6c2.3 0 3.4-1.2 3.4-3.4l.1-9.4zm-7.1 19.8v16.9h4.1c2.1 0 3.1-1 3.1-3.1V63.2c0-2.3-1.2-3.4-3.4-3.4h-3.8zM230.9 29.6h8.3v46.9h9.2v7.6h-17.5V29.6zM259 52.5l4.9-23h8L263 65v19.1h-8.3V65.3l-8.9-35.8h8.6l4.6 23z"/></g><path fill="#FDBA33" d="M60.8 22.8L28.4 40.7l31.9 19.4 32.8-18.8z"/><path fill="#F7941E" d="M60.8 97.9l33.2-19-.6-37.8-32.6 18.7z"/><path fill="#F15A29" d="M28.4 40.7L28 78.6l32.8 18.8-.2-37.4z"/><g fill="none" stroke-miterlimit="10"><g stroke-linejoin="bevel"><path stroke="#1F181A" stroke-width="3" d="M27.9 78.8V41.1"/><path stroke="#58595B" stroke-width="2" d="M31.2 43v37.8M34.4 44.9v37.7M37.7 46.8v37.8M41 48.6v37.8M44.3 50.5v37.8M47.5 52.4v37.8M50.8 54.3v37.8M54 56.2V94M57.3 58.1v37.8M60.6 60v37.8"/></g><path stroke="#58595B" stroke-width="3" stroke-linejoin="bevel" d="M27.9 41.1L60.6 60l32.7-18.9-32.7-18.9z"/><path stroke="#58595B" stroke-width="3" d="M93.3 78.8l-32.7 19-32.7-19V41.1l32.7-18.9 32.7 18.9z"/><g stroke="#58595B"><path stroke-width="3" d="M93.3 78.8l-32.7 19"/><path stroke-width="2" stroke-linejoin="bevel" d="M60.6 94l32.7-18.9M60.6 90.2l32.7-18.8M60.6 86.4l32.7-18.8M60.6 82.6l32.7-18.8M60.6 78.8L93.3 60M60.6 75.1l32.7-18.9M60.6 71.4l32.7-19M60.6 67.6l32.7-19M60.6 63.8l32.7-18.9"/><path stroke-width="3" stroke-linejoin="bevel" d="M93.3 41.1L60.6 60 27.9 41.1l32.7-18.9"/></g></g></svg>