<svg version="1.1" id="Layer_1" xmlns="http://www.w3.org/2000/svg" x="0" y="0" viewBox="0 0 300 120" xml:space="preserve"><g fill="#00374D"><path d="M161 50.7c-2-3.5-4.9-5.4-8.6-5.4-3.3 0-6 1.5-8 4.4-1 1.2-1.5 3.5-1.5 7v11.5l.1 1.3c.4 1.3 1.2 1.9 2.1 1.9h.4c.8-.2 1.1-.3 1.1-.4.8-.3 1.2-1.3 1.2-2.9V54.6l.2-1.1c.9-2.3 2.4-3.4 4.5-3.4l1.2.2c2.4.8 3.6 2.3 3.6 4.6l-.3 1.3c-.8 2.3-2.3 3.4-4.4 3.4-1.6.3-2.4 1-2.4 2.2v.4c0 1.2.8 1.9 2.4 2.2 2.5 0 4.8-1 6.7-2.9 1.8-1.9 2.8-4.1 2.8-6.6-.1-1.4-.4-2.9-1.1-4.2zM190.8 47.3c-.5-1.3-1.2-1.9-2.2-1.9h-.4l-.5.1c-1.1.4-1.7 1.4-1.7 3v6.8l-.1.7c-.8 2.4-2.3 3.6-4.5 3.6-1.2 0-2.1-.3-2.9-.9-1.3-.8-2-2.3-2-4.9v-6.5c-.2-1.6-1.2-2-2.2-2h-.4l-.5.1c-1.1.4-1.7 1.4-1.7 3v5c0 2.6.3 4.5 1 5.6 2.1 3.5 4.9 5.3 8.3 5.3h.4c2.6 0 4.9-1.1 6.9-3.2 1.6-1.6 2.4-4.1 2.4-7.5v-5.5l.1-.8zM166.4 38.9l-.4.1c-1.4.2-2 1.2-2 2.1v21c0 .9.6 1.9 2 2.1l.4.1c1.4 0 2.2-.9 2.3-2.8V41.7c-.1-1.9-1-2.8-2.3-2.8zM202.1 50.4h.5c.7 0 1.3.2 2.2.6 1 .9 1.8 1.4 2.6 1.4l.5-.1c1.3-.5 1.8-1.2 1.8-2.2v-.3c0-.4-.1-.8-.3-1.2-1.8-2.2-4.1-3.3-6.7-3.3h-.8c-2.3 0-4.5 1-6.5 2.9-1.2 1.3-1.9 2.6-2.3 4.1-.3.8-.3 1.6-.3 2.4 0 1.4.3 2.9 1 4.2.3.4.5.9.8 1.3 1.9 2.7 4.5 4.1 7.6 4.1.9 0 2-.2 3.2-.5 2.9-1.3 4.3-2.5 4.3-3.8v-.6c-.3-1.3-1.2-2-2.3-2h-.3c-.6 0-1 .4-1 .4-1.3 1.3-2.4 1.7-3.7 1.7l-1-.1c-2.5-.8-3.9-2.4-3.9-4.7l.3-1.3c1-2 2.4-3 4.3-3zM230.7 48.3v-.9c-.1-1.3-1.1-2.1-2.1-2.1h-.6c-.9 0-2 .6-2.1 2.5 0 2.3-1 3.4-3 4.4-.6.2-1.2.3-1.8.3h-.1c-1.8 0-3.4-.6-4.3-2.4-.3-.5-.3-1.4-.3-2v-7.3l-.1-.5c-.1-1.2-1.2-1.8-2.2-1.8l-.9.2c-1.1.4-1.6 1.3-1.6 2.8v20.1l.1.8c0 1 .7 1.7 2.1 2.1h.4c1 0 2-.5 2.2-1.6 0-1 .1-2.1.4-2.9 1-1.8 2.4-2.6 4.2-2.6h.1c.6 0 1.3.1 1.8.3 2 .9 3 2.5 3 4.9 0 1.3 1.2 1.9 2.1 1.9h.6c1 0 1.9-.6 2.1-2.1v-.9c0-2.4-1-4.9-2.8-6.5l-.1-.1c2-1.9 2.9-4.2 2.9-6.6zM251.5 47.5v15.1c0 2.6-1.1 4.8-3.2 6.6l-.2.2c-.5.5-1.1 1-1.8 1.3-1.3.8-2.9 1.2-4.7 1.2-.3 0-4-.1-4-.1-1.3-.2-2.2-1.3-2.2-2.2V69l.1-.4c.3-.6.6-1 1.2-1.3.5-.3 1.1-.3 1.9-.3h3.8l.6-.1c.1 0 .2 0 .3-.1.1 0 .2-.1.3-.1 1.3-.3 2.4-1.3 3.1-3.1v-.1c-.1 0-.1.1-.2.1-1.3.7-2.7 1-4 1h-.4c-3.8 0-7-1.8-8.6-5.6-.4-1.2-.7-2.8-.7-4.4V48c0-1.3.8-2.2 2.2-2.5h.4c1.5.3 2.2 1.1 2.2 2.2v7c0 2.4 1.3 4.1 3.7 4.9l1.2.1c1.8 0 3.4-1 4.3-3V48.8c.1-.6 0-1.1.2-1.5.3-1 1.2-1.7 2.3-1.8h.4c.5.1 1.6.7 1.8 2z"/></g><path fill="#FAA21C" d="M126.7 36c-1.3-2.6-2.8-4.9-4.5-7.2-7.5-9.6-19.3-15.8-32.4-15.8C67 13 48.5 31.5 48.5 54.2V107c5.7 0 10.3-4.6 10.3-10.3V54.2c0-1.7.2-3.3.4-4.9 2.3-14.8 15.2-26.1 30.5-26.1 6.1 0 11.8 1.8 16.6 4.9 3.9 2.4 7.1 5.7 9.6 9.6 3 4.8 4.9 10.5 4.9 16.6 0 17-13.8 30.9-30.9 30.9-3.6 0-7.1-.7-10.3-1.8V72.1c3 1.8 6.5 2.8 10.3 2.8 11.4 0 20.6-9.2 20.6-20.6 0-4.9-1.7-9.4-4.5-12.9-3.8-4.7-9.6-7.7-16.1-7.7-11.4 0-20.6 9.2-20.6 20.6V90c.4.3.8.5 1.3.7 5.8 3.1 12.3 4.9 19.4 4.9 12.3 0 23.4-5.5 30.9-14 6.4-7.2 10.2-16.7 10.3-27.1v-.2c-.2-6.6-1.7-12.8-4.5-18.3zM79.4 54.2c0-5.7 4.6-10.3 10.3-10.3 2.8 0 5.3 1.1 7.1 2.9 2 1.8 3.2 4.5 3.2 7.5 0 5.7-4.6 10.3-10.3 10.3-2.9 0-5.5-1.2-7.3-3-1.8-1.9-3-4.5-3-7.4z"/><path fill="#FFCE02" d="M126.7 36c-1.3-2.6-2.8-4.9-4.5-7.2-7.5-9.6-19.3-15.8-32.4-15.8C67 13 48.5 31.5 48.5 54.2V107c5.7 0 10.3-4.6 10.3-10.3V54.2c0-1.7.2-3.3.4-4.9 2.3-14.8 15.2-26.1 30.5-26.1 6.1 0 11.8 1.8 16.6 4.9 3.9 2.4 7.1 5.7 9.6 9.6 3 4.8 4.9 10.5 4.9 16.6 0 17-13.8 30.9-30.9 30.9-3.6 0-7.1-.7-10.3-1.8V72.1c3 1.8 6.5 2.8 10.3 2.8 11.4 0 20.6-9.2 20.6-20.6 0-4.9-1.7-9.4-4.5-12.9-3.8-4.7-9.6-7.7-16.1-7.7-11.4 0-20.6 9.2-20.6 20.6V90c.4.3.8.5 1.3.7 5.8 3.1 12.3 4.9 19.4 4.9 12.3 0 23.4-5.5 30.9-14 6.4-7.2 10.2-16.7 10.3-27.1v-.2c-.2-6.6-1.7-12.8-4.5-18.3zM79.4 54.2c0-5.7 4.6-10.3 10.3-10.3 2.8 0 5.3 1.1 7.1 2.9 2 1.8 3.2 4.5 3.2 7.5 0 5.7-4.6 10.3-10.3 10.3-2.9 0-5.5-1.2-7.3-3-1.8-1.9-3-4.5-3-7.4z"/><path fill="#FCB415" d="M48.5 62.1c3.1-4.6 6.7-8.9 10.7-12.7-.3 1.6-.4 3.2-.4 4.9v42.5c0 5.7-4.6 10.3-10.3 10.3v-45zM126.7 36c-1.3-2.6-2.8-4.9-4.5-7.2-3.6-.6-7.4-.8-11.2-.8-1.6 0-3.2.1-4.8.2 3.9 2.4 7.1 5.7 9.6 9.6 3 4.8 4.9 10.5 4.9 16.6 0 17-13.8 30.9-30.9 30.9-3.6 0-7.1-.7-10.3-1.8V72.1c3 1.8 6.5 2.8 10.3 2.8 11.4 0 20.6-9.2 20.6-20.6 0-4.9-1.7-9.4-4.5-12.9-3.8-4.7-9.6-7.7-16.1-7.7-11.4 0-20.6 9.2-20.6 20.6V90c.4.3.8.5 1.3.7 5.8 3.1 12.3 4.9 19.4 4.9 12.3 0 23.4-5.5 30.9-14 6.4-7.2 10.2-16.7 10.3-27.1v-.2c-.1-6.6-1.6-12.8-4.4-18.3zM79.4 54.2c0-5.7 4.6-10.3 10.3-10.3 2.8 0 5.3 1.1 7.1 2.9 2 1.8 3.2 4.5 3.2 7.5 0 5.7-4.6 10.3-10.3 10.3-2.9 0-5.5-1.2-7.3-3-1.8-1.9-3-4.5-3-7.4z"/><path fill="#FAA21C" d="M131 54.2v.2c-.1 10.4-3.9 19.9-10.3 27.1-7.5 8.6-18.6 14-30.9 14-7 0-13.6-1.8-19.4-4.9 1.9-10.9 6.2-20.8 12.1-29.1 1.8 1.8 4.4 3 7.3 3 5.7 0 10.3-4.6 10.3-10.3 0-2.9-1.3-5.6-3.2-7.5 2.9-2.1 5.9-3.9 9-5.5 2.9 3.5 4.5 8 4.5 12.9 0 11.4-9.2 20.6-20.6 20.6-3.8 0-7.3-1-10.3-2.8v11.3c3.2 1.2 6.7 1.8 10.3 1.8 17 0 30.9-13.9 30.9-30.9 0-6.1-1.8-11.7-4.9-16.6 3.5-.9 7.2-1.5 10.9-1.6 2.8 5.6 4.3 11.8 4.3 18.3z"/></svg>